<mxfile host="app.diagrams.net" modified="2024-01-08T13:51:24.074Z" agent="Mozilla/5.0 (Macintosh; Intel Mac OS X 10_15_7) AppleWebKit/537.36 (KHTML, like Gecko) Chrome/120.0.0.0 Safari/537.36" version="22.1.17" etag="Bo4W9r00cIf5_Ofg5bDc" type="github">
  <diagram name="페이지-1" id="8JeYHoBmb6HFDzTnHFd0">
    <mxGraphModel>
      <root>
        <mxCell id="0" />
        <mxCell id="1" parent="0" />
      </root>
    </mxGraphModel>
  </diagram>
</mxfile>
